<?xml version="1.0" encoding="UTF-8"?>
<svg width="1441px" height="441px" viewBox="0 0 1441 441" version="1.1" xmlns="http://www.w3.org/2000/svg" xmlns:xlink="http://www.w3.org/1999/xlink">
    <!-- Generator: Sketch 49.3 (51167) - http://www.bohemiancoding.com/sketch -->
    <title>docs_illustration</title>
    <desc>Created with Sketch.</desc>
    <defs></defs>
    <g id="Page-1" stroke="none" stroke-width="1" fill="none" fill-rule="evenodd">
        <g id="skycoin-web-Introduction" transform="translate(0.000000, -204.000000)">
            <g id="docs_illustration" transform="translate(0.000000, 204.000000)">
                <rect id="Rectangle-path" fill="#101F34" fill-rule="nonzero" x="0.5" y="0.1" width="1440" height="440"></rect>
                <polygon id="Shape" stroke="#FFFFFF" fill="#101F34" fill-rule="nonzero" points="555.2 25 402.4 111.6 402.4 329.5 521 400.1 672.5 313.1 672.5 92.5"></polygon>
                <polyline id="Shape" stroke="#FFFFFF" stroke-width="0.5" fill="#101F34" fill-rule="nonzero" points="402.4 111.6 521.4 179.8 672.5 92.5"></polyline>
                <path d="M521.4,179.8 L521,400.1" id="Shape" stroke="#FFFFFF" stroke-width="0.5" fill="#101F34" fill-rule="nonzero"></path>
                <polygon id="Shape" stroke="#FFFFFF" fill="#101F34" fill-rule="nonzero" points="528.9 244.5 528.9 184.2 664.4 106.4 664.4 166.7"></polygon>
                <path d="M579.9,181.8 L579.9,168.2 C579.9,165.7 581.2,163.4 583.4,162.2 L610.7,146.5 C612.2,145.6 614.1,146.7 614.1,148.5 L614.1,162.1 C614.1,164.6 612.8,166.9 610.6,168.1 L583.3,183.8 C581.8,184.7 579.9,183.6 579.9,181.8 Z" id="Shape" stroke="#FFFFFF" stroke-width="0.5" fill="#101F34" fill-rule="nonzero"></path>
                <path d="M579.9,173.2 L614.1,153.7" id="Shape" stroke="#FFFFFF" stroke-width="0.5" fill="#101F34" fill-rule="nonzero"></path>
                <path d="M613,165.3 L607.6,157.4" id="Shape" stroke="#FFFFFF" stroke-width="0.5" fill="#101F34" fill-rule="nonzero"></path>
                <path d="M645.7,360.3 L645.7,346.7 C645.7,344.2 647,341.9 649.2,340.7 L676.5,325 C678,324.1 679.9,325.2 679.9,327 L679.9,340.6 C679.9,343.1 678.6,345.4 676.4,346.6 L649.1,362.3 C647.6,363.2 645.7,362.1 645.7,360.3 Z" id="Shape" stroke="#FFFFFF" stroke-width="0.5" fill="#101F34" fill-rule="nonzero"></path>
                <path d="M645.7,351.7 L679.9,332.2" id="Shape" stroke="#FFFFFF" stroke-width="0.5" fill="#101F34" fill-rule="nonzero"></path>
                <path d="M678.8,343.8 L673.4,335.9" id="Shape" stroke="#FFFFFF" stroke-width="0.5" fill="#101F34" fill-rule="nonzero"></path>
                <polygon id="Shape" stroke="#FFFFFF" fill="#101F34" fill-rule="nonzero" points="528.9 314.9 528.9 254.6 664.4 176.9 664.4 237.2"></polygon>
                <path d="M579.9,252.3 L579.9,238.7 C579.9,236.2 581.2,233.9 583.4,232.7 L610.7,217 C612.2,216.1 614.1,217.2 614.1,219 L614.1,232.6 C614.1,235.1 612.8,237.4 610.6,238.6 L583.3,254.3 C581.8,255.2 579.9,254.1 579.9,252.3 Z" id="Shape" stroke="#FFFFFF" stroke-width="0.5" fill="#101F34" fill-rule="nonzero"></path>
                <path d="M579.9,243.6 L614.1,224.2" id="Shape" stroke="#FFFFFF" stroke-width="0.5" fill="#101F34" fill-rule="nonzero"></path>
                <path d="M613,235.8 L607.6,227.9" id="Shape" stroke="#FFFFFF" stroke-width="0.5" fill="#101F34" fill-rule="nonzero"></path>
                <path d="M643.3,358.8 L643.3,345.2 C643.3,342.7 644.6,340.4 646.8,339.2 L674.1,323.5 C675.6,322.6 677.5,323.7 677.5,325.5 L677.5,339.1 C677.5,341.6 676.2,343.9 674,345.1 L646.7,360.8 C645.2,361.7 643.3,360.6 643.3,358.8 Z" id="Shape" stroke="#FFFFFF" stroke-width="0.5" fill="#101F34" fill-rule="nonzero"></path>
                <path d="M643.3,350.2 L677.5,330.7" id="Shape" stroke="#FFFFFF" stroke-width="0.5" fill="#101F34" fill-rule="nonzero"></path>
                <path d="M676.5,342.3 L671.1,334.4" id="Shape" stroke="#FFFFFF" stroke-width="0.5" fill="#101F34" fill-rule="nonzero"></path>
                <polygon id="Shape" stroke="#FFFFFF" fill="#101F34" fill-rule="nonzero" points="717.1 284.1 658.6 250.5 528.7 325.7 528.7 385.4 587.3 418.8 718.5 343.3"></polygon>
                <path d="M653.9,253.6 L712.1,286.8" id="Shape" stroke="#FFFFFF" fill="#101F34" fill-rule="nonzero"></path>
                <path d="M572.4,367.4 L572.4,326.1 C572.4,321 575.1,316.3 579.6,313.8 L630.8,284.7 C632.7,283.6 634.3,282 635.4,280 L639.1,273.2 C640.3,270.9 642.2,269.1 644.4,267.8 L659.2,259.5 C661.9,258 665.2,259.9 665.2,263 L665.2,306.8 L572.4,367.4 Z" id="Shape" stroke="#FFFFFF" fill="#101F34" fill-rule="nonzero"></path>
                <path d="M574.7,369 L574.7,326.3 C574.7,322.1 577,318.1 580.7,316 L633.1,286.2 C635,285.1 636.6,283.5 637.7,281.5 L641.4,274.7 C642.6,272.4 644.5,270.6 646.7,269.3 L661.5,261 C662.5,260.5 663.5,260.4 664.5,260.6" id="Shape" stroke="#FFFFFF" stroke-width="0.5" fill="#101F34" fill-rule="nonzero"></path>
                <polyline id="Shape" stroke="#0074FF" fill="#101F34" fill-rule="nonzero" stroke-linejoin="round" points="579.7 367 579.7 322.8 659.2 277.2 662.4 278.9 662.4 347.9"></polyline>
                <path d="M584.4,364.7 L584.4,328 C584.4,324 586.5,320.4 590,318.4 L616.5,303.3 C618.1,302.4 620,302.5 621.5,303.5 L623.9,305.1 C625.1,305.9 626.7,306 628,305.2 L670.3,280.7 C672.7,279.3 675.6,281 675.6,283.8 L675.6,321.8 L584.4,364.7 Z" id="Shape" stroke="#FFFFFF" fill="#101F34" fill-rule="nonzero"></path>
                <path d="M586.7,365.9 L586.7,328.1 C586.7,325 588.4,322.1 591.1,320.6 L618.6,305 C620.2,304.1 622.1,304.2 623.6,305.2 L626,306.8 C627.2,307.6 628.8,307.7 630.1,306.9 L672.2,282.5 C673.3,281.9 674.5,281.9 675.5,282.4" id="Shape" stroke="#FFFFFF" stroke-width="0.5" fill="#101F34" fill-rule="nonzero"></path>
                <path d="M595.2,379.4 L595.2,338.1 C595.2,333 597.9,328.3 602.4,325.8 L653.6,296.7 C655.5,295.6 657.1,294 658.2,292 L661.9,285.2 C663.1,282.9 665,281.1 667.2,279.8 L682,271.5 C684.7,270 688,271.9 688,275 L688,318.8 L595.2,379.4 Z" id="Shape" stroke="#FFFFFF" fill="#101F34" fill-rule="nonzero"></path>
                <path d="M597.5,381.1 L597.5,338.4 C597.5,334.2 599.8,330.2 603.5,328.1 L655.9,298.3 C657.8,297.2 659.4,295.6 660.5,293.6 L664.2,286.8 C665.4,284.5 667.3,282.7 669.5,281.4 L684.3,273.1 C685.3,272.6 686.3,272.5 687.3,272.7" id="Shape" stroke="#FFFFFF" stroke-width="0.5" fill="#101F34" fill-rule="nonzero"></path>
                <polyline id="Shape" stroke="#FFFFFF" stroke-width="0.5" fill="#101F34" fill-rule="nonzero" points="602.5 379 602.5 334.8 682.1 289.2 685.2 290.9 685.2 359.9"></polyline>
                <path d="M607.2,376.7 L607.2,340 C607.2,336 609.3,332.4 612.8,330.4 L639.3,315.3 C640.9,314.4 642.8,314.5 644.3,315.5 L646.7,317.1 C647.9,317.9 649.5,318 650.8,317.2 L693.1,292.7 C695.5,291.3 698.4,293 698.4,295.8 L698.4,333.8 L607.2,376.7 Z" id="Shape" stroke="#FFFFFF" fill="#101F34" fill-rule="nonzero"></path>
                <path d="M609.5,378 L609.5,340.2 C609.5,337.1 611.2,334.2 613.9,332.7 L641.4,317.1 C643,316.2 644.9,316.3 646.4,317.3 L648.8,318.9 C650,319.7 651.6,319.8 652.9,319 L695,294.6 C696.1,294 697.3,294 698.3,294.5" id="Shape" stroke="#FFFFFF" stroke-width="0.5" fill="#101F34" fill-rule="nonzero"></path>
                <polygon id="Shape" stroke="#FFFFFF" fill="#101F34" fill-rule="nonzero" points="731.3 225.7 731.3 130.1 859.9 56.2 961.4 114.9 961.4 210.5 833.5 285"></polygon>
                <polygon id="Shape" stroke="#FFFFFF" stroke-width="0.5" fill="#101F34" fill-rule="nonzero" points="739.2 129.7 833.2 184.5 953.9 114.9 859.5 60.2"></polygon>
                <path d="M859.5,60.2 L859.5,161.7" id="Shape" stroke="#FFFFFF" stroke-width="0.5" fill="#101F34" fill-rule="nonzero"></path>
                <g id="Group" transform="translate(879.000000, 278.000000)" fill="#101F34" fill-rule="nonzero" stroke="#FFFFFF">
                    <polygon id="Shape" points="221 81.2 221 95.3 131.6 146.8 0.7 70.2 0.7 56.1 87.7 4.9"></polygon>
                    <path d="M221,81.2 L199.5,93 C198,93.8 196.9,95.1 196.2,96.6 L193.9,101.7 C193.2,103.2 192.1,104.4 190.8,105.2 L160.5,122.7 L157.4,119.6 C156.7,118.9 155.5,118.7 154.7,119.3 L131.8,132.8 L0.9,56.1" id="Shape" stroke-width="0.5"></path>
                    <polyline id="Shape" stroke-width="0.5" points="87.7 4.9 87.7 17.9 209.6 87.2"></polyline>
                    <path d="M87.7,17.9 L11.4,62.5" id="Shape" stroke-width="0.5"></path>
                    <polygon id="Shape" stroke-width="0.5" points="60.3 75.8 78 101.4 95.6 111.7 121.9 118 190.2 77.5 151.3 68.1 128.6 35.3 99.1 28.3 76.7 0.5 8.4 41 30.8 68.8"></polygon>
                    <path d="M99.1,28.3 L30.8,68.8" id="Shape" stroke-width="0.5"></path>
                    <path d="M60.3,75.8 L128.6,35.3" id="Shape" stroke-width="0.5"></path>
                    <path d="M151.3,68.1 L87.1,106.3" id="Shape" stroke-width="0.5"></path>
                </g>
                <polygon id="Shape" stroke="#FFFFFF" fill="#101F34" fill-rule="nonzero" points="1322.6 222.6 1228.6 168.1 1228.6 123.6 1294.1 85.6 1388.1 140.1 1388.1 184.1"></polygon>
                <polyline id="Shape" stroke="#FFFFFF" stroke-width="0.5" points="1228.6 123.6 1322.6 177.6 1388.1 140.1"></polyline>
                <path d="M1322.6,177.6 L1322.6,222.6" id="Shape" stroke="#FFFFFF" stroke-width="0.5"></path>
                <polyline id="Shape" stroke="#FFFFFF" stroke-width="0.5" points="1283.6 166.1 1322.1 189.6 1347.1 175.1"></polyline>
                <path d="M1229.1,147.6 L1275.6,174.6" id="Shape" stroke="#FFFFFF" stroke-width="0.5"></path>
                <polyline id="Shape" stroke="#FFFFFF" stroke-width="0.5" points="1309.1 203.6 1322.6 209.6 1338.1 200.6"></polyline>
                <path d="M1345.1,201.6 L1387.6,176.1" id="Shape" stroke="#FFFFFF" stroke-width="0.5"></path>
                <polygon id="Shape" stroke="#0074FF" fill="#101F34" fill-rule="nonzero" stroke-linejoin="round" points="1246.6 124.6 1265.6 135.6 1302.6 113.6 1283.6 103.1"></polygon>
                <path d="M1281.6,133.6 L1320.6,111.1" id="Shape" stroke="#FFFFFF" stroke-width="0.5"></path>
                <path d="M1278.1,142.6 L1326.1,114.1" id="Shape" stroke="#FFFFFF" stroke-width="0.5"></path>
                <ellipse id="Oval" stroke="#0074FF" fill="#101F34" fill-rule="nonzero" stroke-linejoin="round" cx="1329.1" cy="134.9" rx="21.5" ry="12.3"></ellipse>
                <polyline id="Shape" stroke="#00C3FF" fill="#101F34" fill-rule="nonzero" stroke-linejoin="round" points="1329.1 122.6 1327.1 135.1 1350.6 133.1"></polyline>
                <polygon id="Shape" stroke="#FFFFFF" fill="#101F34" fill-rule="nonzero" points="1063.8 111.2 1063.8 97.7 1055.3 94.7 1064.3 86.2 1064.3 67.2 1129.3 29.2 1222.3 83.7 1222.3 129.2 1157.8 166.2"></polygon>
                <ellipse id="Oval" stroke="#0074FF" fill="#101F34" fill-rule="nonzero" stroke-linejoin="round" cx="1176.9" cy="78.5" rx="15.4" ry="8.8"></ellipse>
                <polyline id="Shape" stroke="#FFFFFF" stroke-width="0.5" points="1176.9 69.7 1175.4 78.7 1192.2 77.2"></polyline>
                <polyline id="Shape" stroke="#FFFFFF" stroke-width="0.5" points="1064.3 67.2 1158.3 121.7 1222.3 83.7"></polyline>
                <path d="M1158.3,121.7 L1157.8,166.2" id="Shape" stroke="#FFFFFF" stroke-width="0.5"></path>
                <polyline id="Shape" stroke="#FFFFFF" stroke-width="0.5" points="1064.3 86.2 1141.3 127.2 1063.8 97.7"></polyline>
                <polygon id="Shape" stroke="#FFFFFF" stroke-width="0.5" points="1163.8 134.2 1198.3 113.7 1176.3 139.2"></polygon>
                <polyline id="Shape" stroke="#FFFFFF" stroke-width="0.5" points="1119.8 137.2 1157.8 160.7 1180.8 146.2"></polyline>
                <polyline id="Shape" stroke="#FFFFFF" stroke-width="0.5" points="1136.3 116.2 1158.8 128.7 1173.3 119.7"></polyline>
                <path d="M1186.8,130.2 L1217.3,112.2" id="Shape" stroke="#FFFFFF" stroke-width="0.5"></path>
                <path d="M1088.3,71.2 L1136.8,42.7" id="Shape" stroke="#0074FF" fill="#101F34" fill-rule="nonzero" stroke-linejoin="round"></path>
                <path d="M1098.8,75.7 L1134.8,54.7" id="Shape" stroke="#0074FF" fill="#101F34" fill-rule="nonzero" stroke-linejoin="round"></path>
                <path d="M1116.3,77.2 L1155.8,54.2" id="Shape" stroke="#FFFFFF" stroke-width="0.5"></path>
                <path d="M1113.3,85.2 L1161.3,57.7" id="Shape" stroke="#FFFFFF" stroke-width="0.5"></path>
                <path d="M1121.3,90.5 L1140.7,79.2" id="Shape" stroke="#FFFFFF" stroke-width="0.5"></path>
                <path d="M1127.9,94.2 L1147.3,82.9" id="Shape" stroke="#FFFFFF" stroke-width="0.5"></path>
                <path d="M1134.4,97.8 L1153.9,86.5" id="Shape" stroke="#FFFFFF" stroke-width="0.5"></path>
                <path d="M1141,101.5 L1160.5,90.2" id="Shape" stroke="#FFFFFF" stroke-width="0.5"></path>
                <path d="M1147.6,105.1 L1167.1,93.8" id="Shape" stroke="#FFFFFF" stroke-width="0.5"></path>
                <path d="M1154.2,108.7 L1173.7,97.4" id="Shape" stroke="#FFFFFF" stroke-width="0.5"></path>
                <path d="M278.6,352.1 L278.6,269.1 L343.6,231.3 L408.9,269 C416.1,273.1 424.2,275.4 432.5,275.5 L437.4,275.6 L432.4,282.9 L437.2,285.7 L437.2,370.2 L372.7,407 L278.6,352.1 Z" id="Shape" stroke="#FFFFFF" fill="#101F34" fill-rule="nonzero"></path>
                <polyline id="Shape" stroke="#FFFFFF" stroke-width="0.5" points="278.6 269.1 372.6 323.6 437.1 285.6"></polyline>
                <path d="M372.6,323.6 L372.6,406.8" id="Shape" stroke="#FFFFFF" stroke-width="0.5"></path>
                <path d="M432.4,282.8 C432.4,282.8 421.6,294.8 405.9,303.8" id="Shape" stroke="#FFFFFF" stroke-width="0.5"></path>
                <path d="M308.9,335.1 L363.4,366.3" id="Shape" stroke="#FFFFFF" stroke-width="0.5"></path>
                <path d="M436.9,300.8 L396.4,324.8" id="Shape" stroke="#FFFFFF" stroke-width="0.5"></path>
                <polyline id="Shape" stroke="#FFFFFF" stroke-width="0.5" points="420.1 371.6 372.4 396.6 346.4 380.1"></polyline>
                <path d="M279.1,279.8 L309.1,296.8" id="Shape" stroke="#FFFFFF" stroke-width="0.5"></path>
                <path d="M332.6,291.1 L382.1,261.6" id="Shape" stroke="#FFFFFF" stroke-width="0.5"></path>
                <path d="M337.2,293.7 L386.7,264.2" id="Shape" stroke="#FFFFFF" stroke-width="0.5"></path>
                <path d="M341.7,296.4 L391.2,266.9" id="Shape" stroke="#FFFFFF" stroke-width="0.5"></path>
                <path d="M346.3,299 L395.8,269.5" id="Shape" stroke="#FFFFFF" stroke-width="0.5"></path>
                <path d="M350.8,301.7 L400.3,272.2" id="Shape" stroke="#FFFFFF" stroke-width="0.5"></path>
                <path d="M355.3,304.3 L404.8,274.8" id="Shape" stroke="#FFFFFF" stroke-width="0.5"></path>
                <path d="M359.9,306.9 L409.4,277.4" id="Shape" stroke="#FFFFFF" stroke-width="0.5"></path>
                <path d="M364.4,309.6 L413.9,280.1" id="Shape" stroke="#FFFFFF" stroke-width="0.5"></path>
                <polygon id="Shape" stroke="#0074FF" fill="#101F34" fill-rule="nonzero" stroke-linejoin="round" points="296.1 269.3 320.9 283.8 329.9 278.3 305.1 264.3"></polygon>
                <polygon id="Shape" stroke="#00C3FF" fill="#101F34" fill-rule="nonzero" stroke-linejoin="round" points="325.6 271.3 333.9 276.3 342.9 270.8 334.6 266.3"></polygon>
                <polygon id="Shape" stroke="#00C3FF" fill="#101F34" fill-rule="nonzero" stroke-linejoin="round" points="348.9 252.6 362.1 260.3 371.1 254.8 357.9 247.6"></polygon>
                <polygon id="Shape" stroke="#0074FF" fill="#101F34" fill-rule="nonzero" stroke-linejoin="round" points="325.1 255.6 347.6 268.6 356.6 263.1 334.1 250.6"></polygon>
                <polygon id="Shape" stroke="#FFFFFF" fill="#101F34" fill-rule="nonzero" points="1085.6 262.6 1085.6 143.1 1150.1 105.6 1243.9 159.8 1243.9 279.6 1181.1 316.3"></polygon>
                <polyline id="Shape" stroke="#FFFFFF" stroke-width="0.5" points="1085.6 143.1 1180.1 197.3 1243.9 159.8"></polyline>
                <path d="M1181.1,316.3 L1180.1,197.3" id="Shape" stroke="#FFFFFF" stroke-width="0.5"></path>
                <polyline id="Shape" stroke="#FFFFFF" stroke-width="0.5" points="1223.1 215.6 1180.1 236.6 1152.4 222.3"></polyline>
                <path d="M1206.6,217.8 L1243.6,197.1" id="Shape" stroke="#FFFFFF" stroke-width="0.5"></path>
                <path d="M1113.9,226.3 L1169.4,260.1" id="Shape" stroke="#FFFFFF" stroke-width="0.5"></path>
                <path d="M1157.4,274.6 C1158.4,275.4 1180.9,289.4 1180.9,289.4 L1197.7,280.4" id="Shape" stroke="#FFFFFF" stroke-width="0.5"></path>
                <path d="M1085.6,169.8 L1122.4,187.8" id="Shape" stroke="#FFFFFF" stroke-width="0.5"></path>
                <path d="M1133.6,162.8 L1156.9,162.5 L1156.6,154.5 L1178.6,154.2 L1161.6,138.4 L1171.4,138.7 C1171.4,138.7 1170.6,132.7 1171.9,132.7 C1173.2,132.7 1184.7,132.2 1184.7,132.2" id="Shape" stroke="#0074FF" fill="#101F34" fill-rule="nonzero" stroke-linejoin="round"></path>
                <polyline id="Shape" stroke="#0074FF" fill="#101F34" fill-rule="nonzero" stroke-linejoin="round" points="1179.4 191.1 1181.6 183.8 1191.1 183.3 1195.6 178.1 1193.9 166.3 1201.4 164.6 1195.6 150.8 1208.4 145.1"></polyline>
                <path d="M1189.6,138.1 L1140.1,166.8" id="Shape" stroke="#FFFFFF" stroke-width="0.25"></path>
                <path d="M1200.4,143.6 L1150.9,172.3" id="Shape" stroke="#FFFFFF" stroke-width="0.25"></path>
                <path d="M1212.4,150.1 L1162.9,178.8" id="Shape" stroke="#FFFFFF" stroke-width="0.25"></path>
                <path d="M1223.1,155.6 L1173.6,184.3" id="Shape" stroke="#FFFFFF" stroke-width="0.25"></path>
                <polygon id="Shape" stroke="#FFFFFF" fill="#101F34" fill-rule="nonzero" points="723.1 280.7 587.3 358.9 587.3 418.8 592.3 421.5 727.9 343.8 727.9 283.4"></polygon>
                <polygon id="Shape" stroke="#FFFFFF" fill="#101F34" fill-rule="nonzero" points="528.7 327 587.1 360.8 587.3 418.8 528.7 385.4"></polygon>
                <polyline id="Shape" stroke="#FFFFFF" stroke-width="0.5" fill="#101F34" fill-rule="nonzero" points="592.3 421.5 592.3 361.8 727.9 283.4"></polyline>
                <path d="M879,181.7 L879,167.3 C879,164.7 880.4,162.2 882.7,160.9 L911.6,144.2 C913.2,143.3 915.2,144.4 915.2,146.3 L915.2,160.7 C915.2,163.3 913.8,165.8 911.5,167.1 L882.6,183.8 C881,184.7 879,183.6 879,181.7 Z" id="Shape" stroke="#FFFFFF" stroke-width="0.5" fill="#101F34" fill-rule="nonzero"></path>
                <path d="M879,172.5 L915.2,151.8" id="Shape" stroke="#FFFFFF" stroke-width="0.5" fill="#101F34" fill-rule="nonzero"></path>
                <path d="M914.1,164.1 L908.4,155.8" id="Shape" stroke="#FFFFFF" stroke-width="0.5" fill="#101F34" fill-rule="nonzero"></path>
                <path d="M803.8,190.7 L803.8,146.9 C803.8,141.5 806.7,136.5 811.4,133.9 L865.7,103.1 C867.8,101.9 869.4,100.2 870.6,98.1 L874.6,90.9 C875.9,88.5 877.9,86.5 880.2,85.2 L895.9,76.4 C898.8,74.8 902.3,76.9 902.3,80.1 L902.3,126.6 L803.8,190.7 Z" id="Shape" stroke="#FFFFFF" fill="#101F34" fill-rule="nonzero"></path>
                <path d="M806.2,192.5 L806.2,147.2 C806.2,142.7 808.6,138.5 812.5,136.3 L868.1,104.7 C870.2,103.5 871.8,101.8 873,99.7 L877,92.5 C878.3,90.1 880.3,88.1 882.6,86.8 L898.3,78 C899.3,77.4 900.4,77.3 901.4,77.6" id="Shape" stroke="#FFFFFF" stroke-width="0.5" fill="#101F34" fill-rule="nonzero"></path>
                <polyline id="Shape" stroke="#0074FF" fill="#101F34" fill-rule="nonzero" stroke-linejoin="round" points="811.5 190.3 811.5 143.5 895.9 95.1 899.2 96.9 899.2 170.1"></polyline>
                <path d="M816.5,187.9 L816.5,149 C816.5,144.8 818.8,140.9 822.4,138.8 L850.5,122.8 C852.2,121.9 854.2,121.9 855.8,123 L858.3,124.7 C859.6,125.6 861.3,125.6 862.6,124.8 L907.5,98.8 C910,97.3 913.2,99.2 913.2,102.1 L913.2,142.4 L816.5,187.9 Z" id="Shape" stroke="#FFFFFF" fill="#101F34" fill-rule="nonzero"></path>
                <path d="M818.9,189.2 L818.9,149.1 C818.9,145.8 820.7,142.7 823.5,141.1 L852.7,124.5 C854.4,123.6 856.4,123.6 858,124.7 L860.5,126.4 C861.8,127.3 863.5,127.3 864.8,126.5 L909.4,100.7 C910.6,100 911.8,100.1 912.9,100.6" id="Shape" stroke="#FFFFFF" stroke-width="0.5" fill="#101F34" fill-rule="nonzero"></path>
                <path d="M828,203.5 L828,159.7 C828,154.3 830.9,149.3 835.6,146.7 L889.9,115.9 C892,114.7 893.6,113 894.8,110.9 L898.8,103.7 C900.1,101.3 902.1,99.3 904.4,98 L920.1,89.2 C923,87.6 926.5,89.7 926.5,92.9 L926.5,139.4 L828,203.5 Z" id="Shape" stroke="#FFFFFF" fill="#101F34" fill-rule="nonzero"></path>
                <path d="M830.4,205.3 L830.4,160 C830.4,155.5 832.8,151.3 836.7,149.1 L892.3,117.5 C894.4,116.3 896,114.6 897.2,112.5 L901.2,105.3 C902.5,102.9 904.5,100.9 906.8,99.6 L922.5,90.8 C923.5,90.2 924.6,90.1 925.6,90.4" id="Shape" stroke="#FFFFFF" stroke-width="0.5" fill="#101F34" fill-rule="nonzero"></path>
                <polyline id="Shape" stroke="#FFFFFF" stroke-width="0.5" fill="#101F34" fill-rule="nonzero" points="835.6 203.1 835.6 156.2 920.1 107.9 923.4 109.6 923.4 182.8"></polyline>
                <path d="M840.7,200.6 L840.7,161.7 C840.7,157.5 843,153.6 846.6,151.5 L874.7,135.5 C876.4,134.6 878.4,134.6 880,135.7 L882.5,137.4 C883.8,138.3 885.5,138.3 886.8,137.5 L931.7,111.5 C934.2,110 937.4,111.9 937.4,114.8 L937.4,155.1 L840.7,200.6 Z" id="Shape" stroke="#FFFFFF" fill="#101F34" fill-rule="nonzero"></path>
                <path d="M843.1,202 L843.1,161.9 C843.1,158.6 844.9,155.5 847.7,153.9 L876.9,137.3 C878.6,136.4 880.6,136.4 882.2,137.5 L884.7,139.2 C886,140.1 887.7,140.1 889,139.3 L933.6,113.5 C934.8,112.8 936,112.9 937.1,113.4" id="Shape" stroke="#FFFFFF" stroke-width="0.5" fill="#101F34" fill-rule="nonzero"></path>
                <path d="M587.3,366.6 L528.7,332.6" id="Shape" stroke="#FFFFFF" stroke-width="0.5" fill="#101F34" fill-rule="nonzero"></path>
                <polygon id="Shape" fill="#101F34" fill-rule="nonzero" points="739.2 129.7 739.2 221.1 834.2 274.2 947.3 201 953.9 114.9 833.2 184.5"></polygon>
                <path d="M767.2,174.9 L767.2,182.2 C767.2,186.1 769.3,189.6 772.6,191.5 L793,203 C795.3,204.3 798.1,202.6 798.1,200 L798.1,193 C798.1,189.2 796.1,185.6 792.7,183.7 L772.2,171.9 C770.1,170.6 767.2,172.3 767.2,174.9 Z" id="Shape" stroke="#FFFFFF" fill="#101F34" fill-rule="nonzero"></path>
                <polygon id="Shape" stroke="#0074FF" fill="#101F34" fill-rule="nonzero" stroke-linejoin="round" points="922.6 209 922.6 178.5 879.7 203.1 879.7 233.9"></polygon>
                <path d="M770.9,171.5 C770.5,172.1 770.2,172.8 770.2,173.6 L770.2,180.9 C770.2,184.8 772.3,188.3 775.6,190.2 L796,201.7 C796.5,202 796.9,202.1 797.4,202.1" id="Shape" stroke="#FFFFFF" stroke-width="0.5" fill="#101F34" fill-rule="nonzero"></path>
                <path d="M833.5,188.8 L833.5,285" id="Shape" stroke="#FFFFFF" stroke-width="0.5" fill="#101F34" fill-rule="nonzero"></path>
                <polyline id="Shape" stroke="#FFFFFF" stroke-width="0.5" points="739.2 129.7 833.2 184.5 953.9 114.9"></polyline>
                <polyline id="Shape" stroke="#FFFFFF" stroke-width="0.5" points="961.4 114.9 833.5 188.8 731.3 130.1"></polyline>
                <polygon id="Shape" stroke="#FFFFFF" fill="#101F34" fill-rule="nonzero" points="298.5 228 298.5 136.1 174.9 65.2 77.3 121.6 77.3 213.4 200.2 285"></polygon>
                <polygon id="Shape" stroke="#FFFFFF" stroke-width="0.5" fill="#101F34" fill-rule="nonzero" points="290.9 135.8 200.6 188.4 84.6 121.6 175.2 69"></polygon>
                <path d="M175.2,69 L175.2,166.6" id="Shape" stroke="#FFFFFF" stroke-width="0.5" fill="#101F34" fill-rule="nonzero"></path>
                <g id="Group" transform="translate(147.000000, 58.000000)" fill="#101F34" fill-rule="nonzero" stroke="#FFFFFF">
                    <path d="M56.7,102.5 L56.7,88.6 C56.7,86.1 55.3,83.7 53.1,82.5 L25.3,66.5 C23.7,65.6 21.8,66.7 21.8,68.5 L21.8,82.4 C21.8,84.9 23.2,87.3 25.4,88.5 L53.2,104.5 C54.8,105.4 56.7,104.3 56.7,102.5 Z" id="Shape" stroke-width="0.5"></path>
                    <path d="M56.7,93.7 L21.9,73.8" id="Shape" stroke-width="0.5"></path>
                    <path d="M22.9,85.6 L28.4,77.6" id="Shape" stroke-width="0.5"></path>
                    <path d="M129,111.2 L129,69.1 C129,63.9 126.2,59.1 121.7,56.6 L69.5,27 C67.5,25.9 65.9,24.2 64.8,22.2 L61,15.3 C59.7,13 57.9,11.1 55.6,9.8 L40.5,1.3 C37.7,-0.3 34.3,1.7 34.3,4.9 L34.3,49.6 L129,111.2 Z" id="Shape"></path>
                    <path d="M126.6,112.9 L126.6,69.4 C126.6,65.1 124.3,61.1 120.5,58.9 L67.1,28.6 C65.1,27.5 63.5,25.8 62.4,23.8 L58.6,16.9 C57.3,14.6 55.5,12.7 53.2,11.4 L38.1,2.9 C37.1,2.3 36,2.2 35.1,2.5" id="Shape" stroke-width="0.5"></path>
                    <polyline id="Shape" stroke-width="0.5" points="121.6 110.8 121.6 65.8 40.4 19.3 37.3 21 37.3 91.3"></polyline>
                    <path d="M116.7,108.5 L116.7,71.1 C116.7,67.1 114.5,63.3 111,61.3 L84,46 C82.4,45.1 80.4,45.2 78.9,46.2 L76.5,47.8 C75.2,48.6 73.6,48.7 72.3,47.9 L29.2,22.9 C26.8,21.5 23.8,23.2 23.8,26 L23.8,64.7 L116.7,108.5 Z" id="Shape"></path>
                    <path d="M114.4,109.7 L114.4,71.2 C114.4,68 112.7,65.1 109.9,63.5 L81.9,47.6 C80.3,46.7 78.3,46.8 76.8,47.8 L74.4,49.4 C73.2,50.2 71.5,50.3 70.2,49.5 L27.3,24.7 C26.2,24.1 25,24.1 23.9,24.6" id="Shape" stroke-width="0.5"></path>
                    <path d="M105.7,123.5 L105.7,81.4 C105.7,76.2 102.9,71.4 98.4,68.9 L46.2,39.3 C44.2,38.2 42.6,36.5 41.5,34.5 L37.7,27.6 C36.4,25.3 34.6,23.4 32.3,22.1 L17.2,13.6 C14.4,12 11,14 11,17.2 L11,61.9 L105.7,123.5 Z" id="Shape"></path>
                    <path d="M103.4,125.1 L103.4,81.6 C103.4,77.3 101.1,73.3 97.3,71.1 L43.9,40.8 C41.9,39.7 40.3,38 39.2,36 L35.4,29.1 C34.1,26.8 32.3,24.9 30,23.6 L14.9,15.1 C13.9,14.5 12.8,14.4 11.9,14.7" id="Shape" stroke-width="0.5"></path>
                    <polyline id="Shape" stroke-width="0.5" points="98.3 123 98.3 78 17.2 31.6 14 33.3 14 103.6"></polyline>
                    <path d="M93.5,120.7 L93.5,83.3 C93.5,79.3 91.3,75.5 87.8,73.5 L60.8,58.2 C59.2,57.3 57.2,57.4 55.7,58.4 L53.3,60 C52,60.8 50.4,60.9 49.1,60.1 L6,35.1 C3.6,33.7 0.6,35.4 0.6,38.2 L0.6,77 L93.5,120.7 Z" id="Shape"></path>
                    <path d="M91.1,122 L91.1,83.5 C91.1,80.3 89.4,77.4 86.6,75.8 L58.6,59.9 C57,59 55,59.1 53.5,60.1 L51.1,61.7 C49.9,62.5 48.2,62.6 46.9,61.8 L4,37 C2.9,36.4 1.7,36.4 0.6,36.9" id="Shape" stroke-width="0.5"></path>
                </g>
                <path d="M156.6,185.7 L156.6,171.8 C156.6,169.3 155.2,166.9 153,165.7 L125.2,149.7 C123.6,148.8 121.7,149.9 121.7,151.7 L121.7,165.6 C121.7,168.1 123.1,170.5 125.3,171.7 L153.1,187.7 C154.6,188.6 156.6,187.5 156.6,185.7 Z" id="Shape" stroke="#FFFFFF" stroke-width="0.5" fill="#101F34" fill-rule="nonzero"></path>
                <path d="M156.6,176.9 L121.7,157" id="Shape" stroke="#FFFFFF" stroke-width="0.5" fill="#101F34" fill-rule="nonzero"></path>
                <path d="M122.8,168.9 L128.3,160.8" id="Shape" stroke="#FFFFFF" stroke-width="0.5" fill="#101F34" fill-rule="nonzero"></path>
                <path d="M228.8,194.4 L228.8,152.3 C228.8,147.1 226,142.3 221.5,139.8 L169.3,110.2 C167.3,109.1 165.7,107.4 164.6,105.4 L160.8,98.5 C159.5,96.2 157.7,94.3 155.4,93 L140.3,84.5 C137.5,82.9 134.1,84.9 134.1,88.1 L134.1,132.8 L228.8,194.4 Z" id="Shape" stroke="#FFFFFF" fill="#101F34" fill-rule="nonzero"></path>
                <path d="M226.5,196.1 L226.5,152.6 C226.5,148.3 224.2,144.3 220.4,142.1 L167,111.9 C165,110.8 163.4,109.1 162.3,107.1 L158.5,100.2 C157.2,97.9 155.4,96 153.1,94.7 L138,86.2 C137,85.6 135.9,85.5 135,85.8" id="Shape" stroke="#FFFFFF" stroke-width="0.5" fill="#101F34" fill-rule="nonzero"></path>
                <polyline id="Shape" stroke="#0074FF" fill="#101F34" fill-rule="nonzero" stroke-linejoin="round" points="221.4 194 221.4 149 140.3 102.5 137.1 104.2 137.1 174.6"></polyline>
                <path d="M216.6,191.7 L216.6,154.3 C216.6,150.3 214.4,146.5 210.9,144.5 L183.9,129.2 C182.3,128.3 180.3,128.4 178.8,129.4 L176.4,131 C175.1,131.8 173.5,131.9 172.2,131.1 L129.1,106.1 C126.7,104.7 123.7,106.4 123.7,109.2 L123.7,148 L216.6,191.7 Z" id="Shape" stroke="#FFFFFF" fill="#101F34" fill-rule="nonzero"></path>
                <path d="M214.2,193 L214.2,154.5 C214.2,151.3 212.5,148.4 209.7,146.8 L181.7,130.9 C180.1,130 178.1,130.1 176.6,131.1 L174.2,132.7 C173,133.5 171.3,133.6 170,132.8 L127.1,108 C126,107.4 124.8,107.4 123.7,107.9" id="Shape" stroke="#FFFFFF" stroke-width="0.5" fill="#101F34" fill-rule="nonzero"></path>
                <path d="M205.6,206.7 L205.6,164.6 C205.6,159.4 202.8,154.6 198.3,152.1 L146.1,122.5 C144.1,121.4 142.5,119.7 141.4,117.7 L137.6,110.8 C136.3,108.5 134.5,106.6 132.2,105.3 L117.1,96.8 C114.3,95.2 110.9,97.2 110.9,100.4 L110.9,145 L205.6,206.7 Z" id="Shape" stroke="#FFFFFF" fill="#101F34" fill-rule="nonzero"></path>
                <path d="M203.3,208.4 L203.3,164.9 C203.3,160.6 201,156.6 197.2,154.4 L143.8,124.1 C141.8,123 140.2,121.3 139.1,119.3 L135.3,112.4 C134,110.1 132.2,108.2 129.9,106.9 L114.8,98.4 C113.8,97.8 112.7,97.7 111.8,98" id="Shape" stroke="#FFFFFF" stroke-width="0.5" fill="#101F34" fill-rule="nonzero"></path>
                <polyline id="Shape" stroke="#0074FF" fill="#101F34" fill-rule="nonzero" stroke-linejoin="round" points="198.2 206.3 198.2 161.3 117.1 114.8 113.9 116.5 113.9 186.8"></polyline>
                <path d="M193.3,203.9 L193.3,166.5 C193.3,162.5 191.1,158.7 187.6,156.7 L160.6,141.4 C159,140.5 157,140.6 155.5,141.6 L153.1,143.2 C151.8,144 150.2,144.1 148.9,143.3 L105.8,118.3 C103.4,116.9 100.4,118.6 100.4,121.4 L100.4,160.1 L193.3,203.9 Z" id="Shape" stroke="#FFFFFF" fill="#101F34" fill-rule="nonzero"></path>
                <path d="M191,205.2 L191,166.7 C191,163.5 189.3,160.6 186.5,159 L158.5,143.1 C156.9,142.2 154.9,142.3 153.4,143.3 L151,144.9 C149.8,145.7 148.1,145.8 146.8,145 L104,120.1 C102.9,119.5 101.7,119.5 100.6,120" id="Shape" stroke="#FFFFFF" stroke-width="0.5" fill="#101F34" fill-rule="nonzero"></path>
                <polygon id="Shape" fill="#101F34" fill-rule="nonzero" points="290.9 135.8 290.9 223.6 199.6 274.6 90.9 204.3 84.6 121.6 200.6 188.4"></polygon>
                <path d="M263.9,179.2 L263.9,186.2 C263.9,189.9 261.9,193.3 258.7,195.2 L239.1,206.3 C236.9,207.5 234.2,206 234.2,203.4 L234.2,196.6 C234.2,192.9 236.2,189.5 239.4,187.7 L259.1,176.4 C261.2,175.1 263.9,176.7 263.9,179.2 Z" id="Shape" stroke="#FFFFFF" stroke-width="0.5" fill="#101F34" fill-rule="nonzero"></path>
                <polygon id="Shape" stroke="#0074FF" fill="#101F34" fill-rule="nonzero" stroke-linejoin="round" points="114.6 205 114.6 175.7 155.9 199.3 155.9 228.9"></polygon>
                <path d="M260.4,175.9 C260.8,176.4 261.1,177.1 261.1,177.9 L261.1,184.9 C261.1,188.6 259.1,192 255.9,193.9 L236.2,205 C235.8,205.3 235.3,205.4 234.8,205.4" id="Shape" stroke="#FFFFFF" stroke-width="0.5" fill="#101F34" fill-rule="nonzero"></path>
                <path d="M200.2,192.5 L200.2,285" id="Shape" stroke="#FFFFFF" stroke-width="0.5" fill="#101F34" fill-rule="nonzero"></path>
                <polyline id="Shape" stroke="#FFFFFF" stroke-width="0.5" points="290.9 135.8 200.6 188.4 84.6 121.6"></polyline>
                <polyline id="Shape" stroke="#FFFFFF" stroke-width="0.5" points="77.3 121.6 200.2 192.5 298.5 136.1"></polyline>
                <polygon id="Shape" stroke="#FFFFFF" fill="#101F34" fill-rule="nonzero" points="189 311.8 189 298.3 197.5 295.3 188.5 286.8 188.5 267.8 123.5 229.8 30.5 284.3 30.5 329.8 95 366.8"></polygon>
                <polyline id="Shape" stroke="#FFFFFF" stroke-width="0.5" points="188.5 267.8 94.5 322.3 30.5 284.3"></polyline>
                <path d="M94.5,322.3 L95,366.8" id="Shape" stroke="#FFFFFF" stroke-width="0.5"></path>
                <polyline id="Shape" stroke="#FFFFFF" stroke-width="0.5" points="188.5 286.8 111.5 327.8 189 298.3"></polyline>
                <polygon id="Shape" stroke="#FFFFFF" stroke-width="0.5" points="89 334.8 54.5 314.3 76.5 339.8"></polygon>
                <polyline id="Shape" stroke="#FFFFFF" stroke-width="0.5" points="133 337.8 95 361.3 72 346.8"></polyline>
                <polyline id="Shape" stroke="#FFFFFF" stroke-width="0.5" points="116.5 316.8 94 329.3 79.5 320.3"></polyline>
                <path d="M66,330.8 L35.5,312.8" id="Shape" stroke="#FFFFFF" stroke-width="0.5"></path>
                <path d="M164.5,271.8 L116,243.3" id="Shape" stroke="#0074FF" fill="#101F34" fill-rule="nonzero" stroke-linejoin="round"></path>
                <path d="M154,276.3 L118,255.3" id="Shape" stroke="#0074FF" fill="#101F34" fill-rule="nonzero" stroke-linejoin="round"></path>
                <path d="M136.5,277.8 L97,254.8" id="Shape" stroke="#FFFFFF" stroke-width="0.5"></path>
                <path d="M139.5,285.8 L91.5,258.3" id="Shape" stroke="#FFFFFF" stroke-width="0.5"></path>
                <path d="M131.5,291.1 L112.1,279.8" id="Shape" stroke="#FFFFFF" stroke-width="0.5"></path>
                <path d="M124.9,294.7 L105.5,283.4" id="Shape" stroke="#FFFFFF" stroke-width="0.5"></path>
                <path d="M118.4,298.4 L98.9,287.1" id="Shape" stroke="#FFFFFF" stroke-width="0.5"></path>
                <path d="M111.8,302 L92.3,290.7" id="Shape" stroke="#FFFFFF" stroke-width="0.5"></path>
                <polygon id="Shape" stroke="#FFFFFF" fill="#101F34" fill-rule="nonzero" points="914 254.8 914 105.9 1012.2 49.1 1012.2 206.8"></polygon>
                <polygon id="Shape" stroke="#FFFFFF" stroke-width="0.5" fill="#101F34" fill-rule="nonzero" points="1006.5 173.4 1006.5 64.8 925.9 109.7 925.9 237.2"></polygon>
                <polygon id="Shape" stroke="#FFFFFF" fill="#101F34" fill-rule="nonzero" points="1011.5 142.7 1038 158.5 1038 212.2 1007.3 192.6"></polygon>
                <polygon id="Shape" stroke="#FFFFFF" stroke-width="0.5" fill="#101F34" fill-rule="nonzero" points="1016.9 174.2 1016.9 65.6 936.3 110.5 936.3 237.9"></polygon>
                <polygon id="Shape" stroke="#FFFFFF" stroke-width="0.5" fill="#101F34" fill-rule="nonzero" points="1023.8 179.2 1023.8 70.6 943.2 115.5 943.2 242.9"></polygon>
                <path d="M939.3,120.1 L951.5,113.4 C958.3,109.7 966.8,112.2 970.5,119 L985.7,147.3 C995,164.6 1016.7,170.7 1033.7,161 L1038,158.5 L1038,212.2 L939.3,269 L914,254.8 L914,105.9 L939.3,120.1 Z" id="Shape" stroke="#FFFFFF" fill="#101F34" fill-rule="nonzero"></path>
                <path d="M939.3,120.1 L939.3,269" id="Shape" stroke="#FFFFFF" stroke-width="0.5" fill="#101F34" fill-rule="nonzero"></path>
                <polygon id="Shape" stroke="#0074FF" fill="#101F34" fill-rule="nonzero" stroke-linejoin="round" points="1024.1 206.8 1024.1 189.2 961.6 225.6 961.6 243.7"></polygon>
                <polygon id="Shape" stroke="#FFFFFF" fill="#101F34" fill-rule="nonzero" points="1418.9 369.7 1418.9 220.8 1320.6 164 1320.6 321.7"></polygon>
                <polygon id="Shape" stroke="#FFFFFF" stroke-width="0.5" fill="#101F34" fill-rule="nonzero" points="1326.4 288.3 1326.4 179.7 1407 224.6 1407 352"></polygon>
                <polygon id="Shape" stroke="#FFFFFF" fill="#101F34" fill-rule="nonzero" points="1321.4 257.6 1294.9 273.4 1294.9 327.1 1325.6 307.5"></polygon>
                <polygon id="Shape" stroke="#FFFFFF" stroke-width="0.5" fill="#101F34" fill-rule="nonzero" points="1316 289.1 1316 180.5 1396.6 225.4 1396.6 352.8"></polygon>
                <polygon id="Shape" stroke="#FFFFFF" stroke-width="0.5" fill="#101F34" fill-rule="nonzero" points="1309.1 294.1 1309.1 185.5 1389.7 230.4 1389.7 357.8"></polygon>
                <path d="M1393.6,235 L1381.4,228.3 C1374.6,224.6 1366.1,227.1 1362.4,233.9 L1347.2,262.2 C1337.9,279.5 1316.2,285.6 1299.2,275.9 L1294.9,273.4 L1294.9,327.1 L1393.5,383.9 L1418.8,369.7 L1418.8,220.8 L1393.6,235 Z" id="Shape" stroke="#FFFFFF" fill="#101F34" fill-rule="nonzero"></path>
                <path d="M1393.6,235 L1393.6,383.9" id="Shape" stroke="#FFFFFF" stroke-width="0.5" fill="#101F34" fill-rule="nonzero"></path>
                <path d="M645.4,365.3 L645.4,351.7 C645.4,349.2 646.7,346.9 648.9,345.7 L676.2,330 C677.7,329.1 679.6,330.2 679.6,332 L679.6,345.6 C679.6,348.1 678.3,350.4 676.1,351.6 L648.8,367.3 C647.3,368.2 645.4,367.1 645.4,365.3 Z" id="Shape" stroke="#FFFFFF" stroke-width="0.5" fill="#101F34" fill-rule="nonzero"></path>
                <path d="M645.4,356.7 L679.6,337.2" id="Shape" stroke="#FFFFFF" stroke-width="0.5" fill="#101F34" fill-rule="nonzero"></path>
                <path d="M678.5,348.8 L673.1,340.9" id="Shape" stroke="#FFFFFF" stroke-width="0.5" fill="#101F34" fill-rule="nonzero"></path>
                <path d="M64,284 L86.5,277 L88.8,278.3 L64.2,286 C63.9,285.3 63.8,284.7 64,284 Z M66.1,288.1 C65.3,287.6 64.7,287.1 64.4,286.5 L89.3,278.6 L89.6,278.8 C90.3,279.2 90.8,279.7 91.2,280.2 L66.1,288.1 Z M64.3,277.8 C64.2,277.2 64.3,276.7 64.4,276.1 L77.8,271.9 C78,272 78.2,272.1 78.4,272.2 L79.7,272.9 L64.3,277.8 Z M76,271.5 L65,274.9 C65.4,274.3 66,273.8 66.7,273.3 C69.3,271.5 73.1,270.8 76,271.5 Z M66.4,280.7 L83.5,275.3 L85.6,276.5 L64.1,283.3 C64.6,282.4 65.3,281.5 66.4,280.7 Z M66.5,288.3 L91.3,280.5 C92.3,282.3 91.5,284.5 89.2,286.2 C85.9,288.5 80.7,289 77.7,287.2 C74.5,289.3 69.7,289.8 66.5,288.3 Z M64.6,278.7 L80.7,273.6 L82.7,274.7 L65.7,280 C65.1,279.7 64.8,279.2 64.6,278.7 Z" id="path0_fill_6_" fill="#1473FC" fill-rule="nonzero"></path>
                <path d="M258.8,212.3 L248.9,243.1 L245.6,244.6 L256.3,211 C257.4,211.1 258.1,211.6 258.8,212.3 Z M252.5,211.5 C253.6,211 254.7,210.7 255.7,210.9 L244.9,245 L244.5,245.2 C243.5,245.7 242.5,245.8 241.7,245.9 L252.5,211.5 Z M265.5,217.5 C266.2,217.8 266.7,218.3 267.3,218.9 L261.5,237.2 C261.3,237.3 261,237.5 260.7,237.7 L258.9,238.6 L265.5,217.5 Z M263.3,235.7 L268.1,220.6 C268.4,221.5 268.6,222.6 268.6,223.8 C268.6,228.2 266.4,232.9 263.3,235.7 Z M260.6,217.7 L253.1,241.2 L250,242.6 L259.4,213.2 C260.1,214.3 260.6,215.8 260.6,217.7 Z M251.9,211.7 L241.1,245.8 C238.3,245.5 236.4,242.9 236.4,238.9 C236.4,233.4 240,227.2 244.4,225.2 C244.4,219.9 247.7,214.1 251.9,211.7 Z M264.2,217.1 L257.2,239.2 L254.4,240.5 L261.8,217.3 C262.7,217 263.5,217 264.2,217.1 Z" id="path0_fill_1_" fill="#1473FC" fill-rule="nonzero"></path>
                <path d="M1350.6,305.7 L1338.5,333.9 L1334.5,331.6 L1347.6,300.7 C1348.9,302.1 1349.8,303.8 1350.6,305.7 Z M1342.9,296.2 C1344.3,297 1345.6,298.1 1346.8,299.6 L1333.5,331 L1333,330.7 C1331.8,330 1330.6,328.9 1329.5,327.8 L1342.9,296.2 Z M1358.8,321.6 C1359.6,323 1360.3,324.4 1361,325.9 L1353.9,342.8 C1353.6,342.6 1353.2,342.5 1353,342.4 L1350.8,341.1 L1358.8,321.6 Z M1356.2,343.2 L1362.1,329.4 C1362.5,331 1362.7,332.8 1362.7,334.3 C1362.6,340.1 1359.9,343.5 1356.2,343.2 Z M1352.8,315.3 L1343.6,336.8 L1339.9,334.6 L1351.4,307.6 C1352.2,310.2 1352.8,312.8 1352.8,315.3 Z M1342.2,295.8 L1328.9,327.1 C1325.5,323 1323.2,317 1323.2,311.6 C1323.2,304.3 1327.6,300.7 1333,303.9 C1333,296.8 1337,293.3 1342.2,295.8 Z M1357.3,319.4 L1348.7,339.7 L1345.2,337.7 L1354.3,316.4 C1355.4,317.2 1356.3,318.3 1357.3,319.4 Z" id="path0_fill" fill="#0072FF" fill-rule="nonzero"></path>
                <path d="M786.1,216.5 L777.8,236 L775,234.4 L784,213.1 C784.9,214.1 785.5,215.2 786.1,216.5 Z M780.8,210 C781.8,210.6 782.7,211.3 783.5,212.4 L774.3,234.1 L774,233.9 C773.2,233.4 772.3,232.7 771.6,231.9 L780.8,210 Z M791.7,227.5 C792.3,228.4 792.7,229.4 793.2,230.5 L788.3,242.2 C788.1,242.1 787.8,242 787.7,241.9 L786.1,241 L791.7,227.5 Z M789.9,242.4 L794,232.9 C794.3,234 794.4,235.2 794.4,236.3 C794.4,240.2 792.5,242.6 789.9,242.4 Z M787.6,223.2 L781.3,238 L778.7,236.5 L786.6,217.9 C787.2,219.6 787.6,221.4 787.6,223.2 Z M780.3,209.7 L771.1,231.3 C768.8,228.5 767.2,224.3 767.2,220.6 C767.2,215.5 770.2,213.1 774,215.3 C774,210.4 776.7,208 780.3,209.7 Z M790.7,226 L784.8,240 L782.4,238.6 L788.7,223.9 C789.4,224.5 790.1,225.2 790.7,226 Z" id="path0_fill_2_" fill="#0072FF" fill-rule="nonzero"></path>
                <path d="M1135.4,127.4 L1146.4,141.2 L1144.1,142.6 L1132,127.5 C1133.1,127.4 1134.2,127.3 1135.4,127.4 Z M1128.4,128.7 C1129.2,128.2 1130.1,127.9 1131.2,127.6 L1143.5,142.9 L1143.2,143.1 C1142.5,143.5 1141.6,143.9 1140.8,144.1 L1128.4,128.7 Z M1145.6,127.6 C1146.5,127.5 1147.4,127.6 1148.4,127.7 L1155,135.9 C1154.8,136 1154.7,136.2 1154.5,136.3 L1153.2,137.1 L1145.6,127.6 Z M1155.9,134.8 L1150.5,128 C1151.4,128.2 1152.4,128.6 1153.1,129 C1156.1,130.7 1157.1,133 1155.9,134.8 Z M1140.8,128.9 L1149.2,139.4 L1147.1,140.7 L1136.5,127.5 C1138.1,127.8 1139.5,128.3 1140.8,128.9 Z M1128,129 L1140.3,144.3 C1137.3,144.9 1133.6,144.4 1130.9,143 C1127.2,141 1126.6,137.8 1129.7,135.9 C1126,133.9 1125.3,130.9 1128,129 Z M1144.1,127.8 L1152.1,137.7 L1150.1,138.9 L1141.7,128.5 C1142.5,128.1 1143.3,127.9 1144.1,127.8 Z" id="path0_fill_3_" fill="#0072FF" fill-rule="nonzero"></path>
            </g>
        </g>
    </g>
</svg>