<?xml version="1.0" encoding="UTF-8"?>
<svg width="100px" height="72px" viewBox="0 0 100 72" version="1.1" xmlns="http://www.w3.org/2000/svg" xmlns:xlink="http://www.w3.org/1999/xlink">
    <!-- Generator: Sketch 49.1 (51147) - http://www.bohemiancoding.com/sketch -->
    <title>Page 1</title>
    <desc>Created with Sketch.</desc>
    <defs>
        <path d="M16.2649123,70.0780702 C19.0254386,71.0833333 21.9964912,71.6578947 25.1105263,71.6578947 L26.3719298,71.6578947 L59.9350877,2.40175439 C56.9017544,1.1254386 53.5587719,0.402631579 50.0385965,0.389473684 L16.2649123,70.0780702 Z M25.1078947,24.1333333 C11.3903509,24.1333333 0.271929825,34.772807 0.271929825,47.8929825 C0.271929825,57.4666667 6.20614035,65.7008772 14.7377193,69.4631579 L48.1701754,0.465789474 L48.1701754,0.463157895 C35.2850877,1.33859649 25.1078947,11.5877193 25.1078947,24.1333333 Z M28.9201754,71.6517544 L39.0614035,71.6517544 L69.2982456,9.2745614 L69.2982456,9.26929825 C67.2938596,6.88333333 64.8166667,4.88157895 62.0105263,3.38245614 L28.9201754,71.6517544 Z M42.3508772,71.6552632 L51.7622807,71.6552632 L74.7824561,24.1359649 L74.7885965,24.1333333 L74.7850877,24.1333333 C74.7850877,19.6885965 73.4824561,15.5473684 71.2657895,11.9894737 L42.3508772,71.6552632 Z M55.7692982,71.6517544 L64.4491228,71.6517544 L86.1833333,26.8052632 C83.8596491,25.6526316 81.322807,24.8587719 78.6429825,24.4552632 L55.7692982,71.6517544 Z M89.8394737,29.0447368 L69.1903509,71.6517544 L74.7798246,71.6517544 C75.6008772,71.6517544 76.4070175,71.6078947 77.2096491,71.5342105 L95.2078947,34.404386 C93.7210526,32.3631579 91.9289474,30.5684211 89.8535088,29.0429825 L89.8394737,29.0447368 Z M83.3438596,70.1745614 C92.8307018,66.8307018 99.6166667,58.1298246 99.6166667,47.8964912 C99.6166667,45.0289474 99.0491228,42.2929825 98.0824561,39.7517544 L83.3438596,70.1745614 Z M83.3421053,70.1754386 L83.3438596,70.1754386 L83.3438596,70.1745614 C83.3438596,70.1745614 83.3429825,70.1745614 83.3421053,70.1754386 Z" id="path-1"></path>
    </defs>
    <g id="Page-1" stroke="none" stroke-width="1" fill="none" fill-rule="evenodd">
        <g id="skycoin-web-blog-listing" transform="translate(-670.000000, -1413.000000)">
            <g id="Page-1" transform="translate(670.000000, 1412.000000)">
                <path d="M86.1831579,27.5650877 L64.4489474,72.4107018 L55.77,72.4107018 L78.642807,25.2142105 C81.3226316,25.6177193 83.8603509,26.4124561 86.1831579,27.5650877 Z M48.17,1.22561404 L14.7375439,70.2229825 C6.20596491,66.4607018 0.271754386,58.2264912 0.271754386,48.652807 C0.271754386,35.5326316 11.3901754,24.8931579 25.1077193,24.8931579 C25.1077193,12.3466667 35.2849123,2.09842105 48.17,1.22298246 L48.17,1.22561404 Z M74.7822807,24.8957895 L51.7621053,72.4150877 L42.3515789,72.4150877 L71.265614,12.7484211 C73.4822807,16.307193 74.7849123,20.4492982 74.7849123,24.8931579 L74.7892982,24.8931579 L74.7822807,24.8957895 Z M83.3436842,70.934386 L98.0822807,40.5115789 C99.0498246,43.052807 99.615614,45.7878947 99.615614,48.6554386 C99.615614,58.8905263 92.8296491,67.5914035 83.3419298,70.934386 L83.3436842,70.934386 Z M89.8542105,29.802807 C91.9296491,31.3282456 93.7217544,33.1229825 95.2077193,35.1642105 L77.2094737,72.2940351 C76.4068421,72.3677193 75.6007018,72.4107018 74.7796491,72.4107018 L69.1901754,72.4107018 L89.8392982,29.8045614 L89.8542105,29.802807 Z M50.0384211,1.14929825 C53.5594737,1.16245614 56.9015789,1.88526316 59.9349123,3.16157895 L26.3717544,72.4177193 L25.1103509,72.4177193 C21.997193,72.4177193 19.0252632,71.8431579 16.265614,70.8378947 L50.0384211,1.14929825 Z M69.2980702,10.034386 L39.0612281,72.4107018 L28.9191228,72.4107018 L62.0103509,4.1422807 C64.8173684,5.64140351 67.2936842,7.6422807 69.2980702,10.0291228 L69.2980702,10.034386 Z" id="Fill-1" fill="#0072FF"></path>
                <g id="Group-5" transform="translate(0.000000, 0.759649)">
                    <mask id="mask-2" fill="white">
                        <use xlink:href="#path-1"></use>
                    </mask>
                    <g id="Clip-4"></g>
                </g>
            </g>
        </g>
    </g>
</svg>