<svg width="238" height="28" viewBox="0 0 238 28" xmlns="http://www.w3.org/2000/svg"><title>Group 2</title><defs><linearGradient x1="0%" y1="100%" y2="0%" id="a"><stop stop-color="#B480F2" offset="0%"/><stop stop-color="#5F8CE5" offset="100%"/></linearGradient></defs><g fill="none" fill-rule="evenodd"><path d="M46.053 8.158c0-.795-.307-1.486-.921-2.073-.614-.587-1.479-.88-2.593-.88-.945 0-1.691.193-2.24.582-.547.388-.821.913-.821 1.576 0 .341.066.649.198.923.133.275.364.521.695.739.33.218.765.412 1.303.582.539.17 1.224.332 2.055.483 2.078.379 3.665 1.013 4.761 1.903 1.096.89 1.644 2.207 1.644 3.949v.34c0 .929-.165 1.767-.496 2.515a5.297 5.297 0 0 1-1.431 1.917c-.624.53-1.38.938-2.267 1.222-.888.284-1.89.426-3.005.426-1.303 0-2.451-.185-3.443-.554-.992-.37-1.818-.88-2.48-1.534a6.475 6.475 0 0 1-1.502-2.301c-.34-.88-.51-1.842-.51-2.883v-.852h3.741v.681c0 1.193.345 2.145 1.034 2.855.69.71 1.762 1.065 3.217 1.065 1.134 0 1.975-.246 2.523-.738.547-.493.821-1.08.821-1.761 0-.322-.056-.63-.17-.924a1.961 1.961 0 0 0-.595-.795c-.283-.237-.67-.45-1.162-.64-.491-.188-1.115-.35-1.87-.482a18.874 18.874 0 0 1-2.75-.668c-.83-.274-1.553-.639-2.167-1.093a4.705 4.705 0 0 1-1.432-1.705c-.34-.681-.51-1.515-.51-2.5v-.17c0-.814.166-1.567.496-2.258A5.469 5.469 0 0 1 37.565 3.3c.595-.511 1.313-.91 2.154-1.193.84-.284 1.78-.426 2.82-.426 1.171 0 2.21.165 3.117.497.907.331 1.668.781 2.282 1.35a5.636 5.636 0 0 1 1.388 1.96 5.93 5.93 0 0 1 .468 2.329V8.84h-3.741v-.682zm12.187 4.886h.68l3.74-5.17h3.912v.17l-4.535 6.45v.51l4.988 6.79v.17h-4.08l-4.025-5.51h-.68v5.51h-3.571V2.08h3.57v10.965zm22.162-5.17h3.571V25.43c0 .644-.203 1.174-.61 1.59-.405.417-.93.626-1.572.626h-8.36v-3.41h6.206c.51 0 .765-.283.765-.851v-3.466h-.51c-.623 1.629-1.965 2.443-4.024 2.443a5.52 5.52 0 0 1-1.956-.341 4.238 4.238 0 0 1-1.587-1.051c-.453-.474-.808-1.065-1.063-1.775-.255-.71-.382-1.549-.382-2.514V7.874h3.57v8.068c0 1.004.237 1.785.71 2.344.472.558 1.18.837 2.125.837 1.077 0 1.866-.345 2.366-1.036.5-.692.751-1.634.751-2.827V7.874zm21.54 8.92c-.322 1.667-1.082 3.011-2.282 4.034-1.2 1.023-2.801 1.534-4.804 1.534a8.541 8.541 0 0 1-2.905-.483 6.83 6.83 0 0 1-2.338-1.392 6.375 6.375 0 0 1-1.559-2.244c-.378-.89-.567-1.903-.567-3.04v-.34c0-1.137.19-2.16.567-3.068a6.805 6.805 0 0 1 1.573-2.33 6.889 6.889 0 0 1 2.353-1.477 8.033 8.033 0 0 1 2.876-.511c1.965 0 3.557.511 4.776 1.534 1.218 1.022 1.988 2.367 2.31 4.033l-3.515.91a3.688 3.688 0 0 0-1.077-2.16c-.604-.605-1.455-.908-2.55-.908-.51 0-.992.094-1.446.284-.453.189-.85.459-1.19.81-.34.35-.61.776-.808 1.278a4.564 4.564 0 0 0-.298 1.69v.17c0 .625.1 1.179.298 1.662.198.483.468.885.808 1.207.34.322.737.564 1.19.725.454.16.935.241 1.445.241 1.096 0 1.932-.275 2.509-.824.576-.549.95-1.288 1.12-2.215l3.513.88zm17.4-1.704c0 1.174-.198 2.21-.594 3.11a6.623 6.623 0 0 1-1.616 2.273 7.08 7.08 0 0 1-2.338 1.406c-.879.322-1.8.483-2.763.483a7.967 7.967 0 0 1-2.763-.483 7.08 7.08 0 0 1-2.339-1.406 6.623 6.623 0 0 1-1.615-2.273c-.397-.9-.595-1.936-.595-3.11v-.341c0-1.155.198-2.183.595-3.082.397-.9.935-1.662 1.615-2.287a6.96 6.96 0 0 1 2.339-1.42 7.967 7.967 0 0 1 2.763-.483c.963 0 1.884.16 2.763.483a6.96 6.96 0 0 1 2.338 1.42 6.773 6.773 0 0 1 1.616 2.287c.396.9.595 1.927.595 3.082v.34zm-7.311 3.863c.51 0 .992-.085 1.445-.256.454-.17.85-.416 1.19-.738.34-.322.61-.715.808-1.18.199-.463.298-.989.298-1.576v-.568c0-.587-.1-1.112-.298-1.576a3.488 3.488 0 0 0-.807-1.18 3.505 3.505 0 0 0-1.19-.738 4.074 4.074 0 0 0-1.446-.255c-.51 0-.992.085-1.446.255a3.5 3.5 0 0 0-1.19.739c-.34.322-.61.715-.808 1.179-.198.464-.297.99-.297 1.576v.568c0 .587.099 1.113.297 1.577a3.5 3.5 0 0 0 .808 1.179c.34.322.737.568 1.19.738.454.17.936.256 1.446.256zm11.138-.398h4.761v-7.272h-4.421V7.874h7.992v10.681h4.081v3.41H123.17v-3.41zm9.21-14.856c0 .378-.07.733-.212 1.065a2.573 2.573 0 0 1-.58.852 2.858 2.858 0 0 1-.865.568 2.599 2.599 0 0 1-1.035.213c-.378 0-.727-.07-1.048-.213a2.91 2.91 0 0 1-.85-.568 2.573 2.573 0 0 1-.582-.852 2.68 2.68 0 0 1-.212-1.065c0-.38.07-.734.212-1.066.142-.331.336-.615.581-.852a2.91 2.91 0 0 1 .85-.568 2.57 2.57 0 0 1 1.05-.213c.358 0 .703.071 1.034.213.33.142.618.331.864.568.246.237.44.521.581.852.142.332.213.687.213 1.066zm11.45 18.265h-3.57V7.874h3.57v2.103h.51a3.738 3.738 0 0 1 1.56-1.847c.717-.435 1.558-.653 2.522-.653.68 0 1.317.109 1.913.326.595.218 1.12.554 1.573 1.009.453.454.807 1.032 1.062 1.733.255.7.383 1.534.383 2.5v8.92h-3.571v-8.012c0-1.003-.24-1.794-.723-2.371-.482-.578-1.176-.867-2.083-.867-1.058 0-1.847.355-2.366 1.065-.52.71-.78 1.662-.78 2.855v7.33z" fill="#4A4A4A"/><path d="M7.099 21.396C3.179 21.396 0 18.203 0 14.264c0-3.939 3.178-7.132 7.099-7.132C7.099 3.193 10.277 0 14.198 0c3.92 0 7.098 3.193 7.098 7.132 3.921 0 7.1 3.193 7.1 7.132 0 3.94-3.179 7.132-7.1 7.132H7.1z" fill="url(#a)"/><path d="M172.596 19.816h1.68V4.584h-1.68V2.4h7.924c.933 0 1.76.13 2.478.392.719.261 1.325.616 1.82 1.064.495.448.868.985 1.12 1.61a5.38 5.38 0 0 1 .378 2.03v.336c0 .541-.084 1.036-.252 1.484-.168.448-.401.85-.7 1.204a4.47 4.47 0 0 1-1.05.91 4.938 4.938 0 0 1-1.302.574v.336c.933.261 1.717.76 2.352 1.498.635.737.952 1.638.952 2.702v.336a5.38 5.38 0 0 1-.378 2.03 4.45 4.45 0 0 1-1.12 1.624c-.495.457-1.101.817-1.82 1.078-.719.261-1.545.392-2.478.392h-7.924v-2.184zm4.032 0h3.724c1.101 0 1.997-.275 2.688-.826.69-.55 1.036-1.311 1.036-2.282v-.168c0-1.008-.327-1.806-.98-2.394-.653-.588-1.54-.882-2.66-.882h-3.808v6.552zm0-8.736h3.808c1.12 0 2.007-.29 2.66-.868.653-.579.98-1.372.98-2.38v-.168c0-.952-.345-1.703-1.036-2.254-.69-.55-1.587-.826-2.688-.826h-3.724v6.496zm13.944 8.904h5.04V4.416h-4.872V2.4h7.056v17.584h5.04V22h-12.264v-2.016zm30.24-4.76c0 1.157-.191 2.18-.574 3.066-.383.887-.891 1.633-1.526 2.24a6.45 6.45 0 0 1-2.226 1.386 7.5 7.5 0 0 1-2.646.476c-.933 0-1.82-.159-2.66-.476a6.479 6.479 0 0 1-2.212-1.386c-.635-.607-1.143-1.353-1.526-2.24-.383-.887-.574-1.909-.574-3.066v-.336c0-1.139.191-2.151.574-3.038a6.808 6.808 0 0 1 1.54-2.254 6.52 6.52 0 0 1 2.226-1.4 7.386 7.386 0 0 1 2.632-.476c.915 0 1.792.159 2.632.476a6.52 6.52 0 0 1 2.226 1.4 6.808 6.808 0 0 1 1.54 2.254c.383.887.574 1.9.574 3.038v.336zm-6.972 5.096c.672 0 1.293-.117 1.862-.35a4.326 4.326 0 0 0 1.498-1.022 4.81 4.81 0 0 0 1.008-1.61c.243-.625.364-1.33.364-2.114v-.336c0-.747-.121-1.433-.364-2.058a4.812 4.812 0 0 0-1.008-1.61 4.635 4.635 0 0 0-3.36-1.428 4.635 4.635 0 0 0-3.36 1.428 4.81 4.81 0 0 0-1.008 1.61 5.642 5.642 0 0 0-.364 2.058v.336c0 .784.121 1.489.364 2.114a4.812 4.812 0 0 0 1.008 1.61c.43.448.929.789 1.498 1.022.57.233 1.19.35 1.862.35zm21.56-.448h-.336c-.448.84-1.06 1.47-1.834 1.89-.775.42-1.62.63-2.534.63a7.24 7.24 0 0 1-2.632-.476 6.5 6.5 0 0 1-2.17-1.372c-.625-.597-1.12-1.34-1.484-2.226-.364-.887-.546-1.9-.546-3.038v-.448c0-1.12.187-2.123.56-3.01.373-.887.868-1.633 1.484-2.24a6.245 6.245 0 0 1 2.156-1.386 7.086 7.086 0 0 1 2.576-.476c1.008 0 1.89.22 2.646.658.756.439 1.349 1.078 1.778 1.918h.336V8.112h2.184v17.304c0 .635-.2 1.157-.602 1.568-.401.41-.92.616-1.554.616h-9.044v-2.016h8.26c.504 0 .756-.28.756-.84v-4.872zm-4.648.448c.653 0 1.26-.121 1.82-.364a4.385 4.385 0 0 0 1.47-1.036c.42-.448.751-.985.994-1.61.243-.625.364-1.32.364-2.086v-.336c0-.747-.121-1.433-.364-2.058a4.933 4.933 0 0 0-.994-1.61 4.52 4.52 0 0 0-3.29-1.428c-.653 0-1.265.121-1.834.364a4.349 4.349 0 0 0-1.484 1.036c-.42.448-.747.98-.98 1.596a5.729 5.729 0 0 0-.35 2.044v.448c0 .784.117 1.484.35 2.1.233.616.56 1.143.98 1.582.42.439.91.775 1.47 1.008.56.233 1.176.35 1.848.35z" fill="#3A3F45"/></g></svg>
